# Blender v2.74 (sub 0) OBJ File: ''
# www.blender.org
mtllib checkercube.mtl
o Plane
v -3.903995 0.008869 3.903995
v 3.903995 0.008869 3.903995
v -3.903995 0.008869 -3.903995
v 3.903995 0.008869 -3.903995
vn 0.000000 1.000000 0.000000
usemtl None
s off
f 1//1 2//1 4//1 3//1
o Cube
v 1.000000 0.014069 -1.000000
v 1.000000 0.014069 1.000000
v -1.000000 0.014069 1.000000
v -1.000000 0.014069 -1.000000
v 1.000000 2.014069 -0.999999
v 0.999999 2.014069 1.000001
v -1.000000 2.014069 1.000000
v -1.000000 2.014069 -1.000000
vn 0.000000 -1.000000 -0.000000
vn 0.000000 1.000000 0.000000
vn 1.000000 0.000000 0.000000
vn -0.000000 -0.000000 1.000000
vn -1.000000 -0.000000 -0.000000
vn 0.000000 0.000000 -1.000000
usemtl Material
s off
f 5//2 6//2 7//2 8//2
f 9//3 12//3 11//3 10//3
f 5//4 9//4 10//4 6//4
f 6//5 10//5 11//5 7//5
f 7//6 11//6 12//6 8//6
f 9//7 5//7 8//7 12//7
