# Blender v2.74 (sub 0) OBJ File: 'Diamonds.blend'
# www.blender.org
mtllib diamond.mtl
o Plane_Plane.002
v -4.118954 -0.063756 0.828017
v 3.919134 -0.063756 0.828017
v -4.118954 -0.063756 -7.210071
v 3.919134 -0.063756 -7.210071
vn 0.000000 1.000000 0.000000
usemtl None
s off
f 1//1 2//1 4//1 3//1
o Pink_Gem_Gem.002
v 1.376522 -0.010190 -3.700000
v 0.691522 0.913538 -3.700000
v 1.138261 0.311107 -3.158804
v 0.592613 0.404457 -2.776121
v 0.795761 0.772971 -2.834086
v 0.507089 0.776770 -3.145672
v 0.830874 0.083160 -3.317317
v 0.157901 0.082092 -3.317317
v 0.303941 0.408256 -3.087707
v 0.246262 0.583351 -3.470390
v 0.703550 -0.011258 -3.700000
v 0.157901 0.082092 -4.082684
v 0.100223 0.257187 -3.700000
v 0.246262 0.583351 -3.929610
v 0.830874 0.083160 -4.082684
v 0.592613 0.404457 -4.623879
v 0.303941 0.408256 -4.312294
v 0.507089 0.776770 -4.254328
v 1.138261 0.311107 -4.241196
v 1.207388 0.860350 -4.623879
v 0.795761 0.772971 -4.565914
v 0.875954 1.050306 -4.254328
v 1.445649 0.539053 -4.082684
v 1.642099 1.182715 -4.082684
v 1.287581 1.137685 -4.312294
v 1.136781 1.243725 -3.929610
v 1.572973 0.633472 -3.700000
v 1.642099 1.182715 -3.317317
v 1.491299 1.288755 -3.700000
v 1.136781 1.243725 -3.470390
v 1.445648 0.539053 -3.317317
v 1.207387 0.860350 -2.776120
v 1.287580 1.137685 -3.087707
v 0.875954 1.050306 -3.145672
vn 0.273100 -0.769600 0.577100
vn 0.001400 -0.859600 0.510900
vn -0.726500 -0.147300 0.671200
vn -0.650700 0.454400 0.608400
vn -0.797500 0.494100 0.346300
vn 0.001500 -0.971000 0.239100
vn -0.168600 -0.985700 -0.000000
vn -0.949800 -0.312900 -0.000000
vn -0.936900 0.242100 0.252000
vn -0.912700 0.408700 -0.000000
vn 0.001500 -0.971000 -0.239100
vn 0.001400 -0.859600 -0.510900
vn -0.726500 -0.147300 -0.671200
vn -0.936900 0.242100 -0.252000
vn -0.797500 0.494100 -0.346300
vn 0.273100 -0.769600 -0.577100
vn 0.411800 -0.555300 -0.722600
vn -0.187300 0.252600 -0.949300
vn -0.650700 0.454400 -0.608400
vn -0.519300 0.700300 -0.489700
vn 0.657200 -0.484800 -0.577100
vn 0.822200 -0.250900 -0.510900
vn 0.351900 0.652400 -0.671200
vn -0.245900 0.754600 -0.608400
vn -0.241200 0.906600 -0.346300
vn 0.928700 -0.283400 -0.239100
vn 0.992200 -0.124900 0.000000
vn 0.575200 0.818000 0.000000
vn 0.040400 0.966900 -0.252000
vn -0.126000 0.992000 -0.000000
vn 0.928700 -0.283400 0.239100
vn 0.822200 -0.250900 0.510900
vn 0.351900 0.652400 0.671200
vn 0.040400 0.966900 0.252000
vn -0.241200 0.906600 0.346300
vn 0.657200 -0.484800 0.577100
vn 0.411800 -0.555300 0.722600
vn -0.187300 0.252600 0.949300
vn -0.245900 0.754600 0.608400
vn -0.519300 0.700300 0.489700
vn 0.595700 -0.803200 0.000000
usemtl Material.002
s off
f 11//2 5//2 7//2 8//2
f 11//3 8//3 12//3
f 12//4 8//4 13//4
f 13//5 8//5 9//5 10//5
f 13//6 10//6 14//6
f 15//7 5//7 11//7 12//7
f 15//8 12//8 16//8
f 16//9 12//9 17//9
f 17//10 12//10 13//10 14//10
f 17//11 14//11 18//11
f 19//12 5//12 15//12 16//12
f 19//13 16//13 20//13
f 20//14 16//14 21//14
f 21//15 16//15 17//15 18//15
f 21//16 18//16 22//16
f 23//17 5//17 19//17 20//17
f 23//18 20//18 24//18
f 24//19 20//19 25//19
f 25//20 20//20 21//20 22//20
f 25//21 22//21 26//21
f 27//22 5//22 23//22 24//22
f 27//23 24//23 28//23
f 28//24 24//24 29//24
f 29//25 24//25 25//25 26//25
f 29//26 26//26 30//26
f 31//27 5//27 27//27 28//27
f 31//28 28//28 32//28
f 32//29 28//29 33//29
f 33//30 28//30 29//30 30//30
f 33//31 30//31 34//31
f 35//32 5//32 31//32 32//32
f 35//33 32//33 36//33
f 36//34 32//34 37//34
f 37//35 32//35 33//35 34//35
f 37//36 34//36 38//36
f 7//37 5//37 35//37 36//37
f 7//38 36//38 8//38
f 8//39 36//39 9//39
f 9//40 36//40 37//40 38//40
f 9//41 38//41 10//41
f 10//42 6//42 38//42
f 6//42 10//42 14//42
f 6//42 14//42 18//42
f 6//42 18//42 22//42
f 6//42 22//42 26//42
f 6//42 26//42 30//42
f 6//42 30//42 34//42
f 6//42 34//42 38//42
o Blue_Gem_Gem.001
v -1.376522 -0.010190 -2.300000
v -0.691522 0.913538 -2.300000
v -1.138261 0.311107 -2.841196
v -0.592613 0.404457 -3.223880
v -0.795761 0.772971 -3.165914
v -0.507089 0.776770 -2.854328
v -0.830874 0.083160 -2.682683
v -0.157901 0.082092 -2.682683
v -0.303941 0.408256 -2.912293
v -0.246262 0.583351 -2.529610
v -0.703550 -0.011258 -2.300000
v -0.157901 0.082092 -1.917317
v -0.100223 0.257187 -2.300000
v -0.246262 0.583351 -2.070390
v -0.830874 0.083160 -1.917317
v -0.592613 0.404457 -1.376121
v -0.303941 0.408256 -1.687706
v -0.507089 0.776770 -1.745672
v -1.138261 0.311107 -1.758804
v -1.207387 0.860350 -1.376120
v -0.795761 0.772971 -1.434086
v -0.875954 1.050306 -1.745672
v -1.445649 0.539053 -1.917316
v -1.642099 1.182715 -1.917316
v -1.287580 1.137685 -1.687706
v -1.136781 1.243725 -2.070390
v -1.572973 0.633472 -2.300000
v -1.642099 1.182715 -2.682683
v -1.491299 1.288755 -2.300000
v -1.136781 1.243725 -2.529610
v -1.445649 0.539053 -2.682683
v -1.207387 0.860350 -3.223879
v -1.287581 1.137685 -2.912293
v -0.875954 1.050306 -2.854328
vn -0.273100 -0.769600 -0.577100
vn -0.001400 -0.859600 -0.510900
vn 0.726500 -0.147300 -0.671200
vn 0.650700 0.454400 -0.608400
vn 0.797500 0.494100 -0.346300
vn -0.001500 -0.971000 -0.239100
vn 0.168600 -0.985700 -0.000000
vn 0.949800 -0.312900 -0.000000
vn 0.937000 0.242100 -0.252000
vn 0.912700 0.408700 -0.000000
vn -0.001500 -0.971000 0.239100
vn -0.001400 -0.859600 0.510900
vn 0.726500 -0.147300 0.671200
vn 0.937000 0.242100 0.252000
vn 0.797500 0.494100 0.346300
vn -0.273100 -0.769600 0.577100
vn -0.411800 -0.555300 0.722600
vn 0.187300 0.252600 0.949300
vn 0.650700 0.454400 0.608400
vn 0.519300 0.700300 0.489700
vn -0.657200 -0.484800 0.577100
vn -0.822200 -0.250900 0.510900
vn -0.351900 0.652400 0.671200
vn 0.245900 0.754600 0.608400
vn 0.241200 0.906600 0.346300
vn -0.928700 -0.283400 0.239100
vn -0.992200 -0.124900 0.000000
vn -0.575200 0.818000 0.000000
vn -0.040400 0.966900 0.252000
vn 0.126000 0.992000 -0.000000
vn -0.928700 -0.283400 -0.239100
vn -0.822200 -0.250900 -0.510900
vn -0.351900 0.652400 -0.671200
vn -0.040400 0.966900 -0.252000
vn 0.241200 0.906600 -0.346300
vn -0.657200 -0.484800 -0.577100
vn -0.411800 -0.555300 -0.722600
vn 0.187300 0.252600 -0.949300
vn 0.245900 0.754600 -0.608400
vn 0.519300 0.700300 -0.489700
vn -0.595700 -0.803200 0.000000
usemtl Material.001
s off
f 45//43 39//43 41//43 42//43
f 45//44 42//44 46//44
f 46//45 42//45 47//45
f 47//46 42//46 43//46 44//46
f 47//47 44//47 48//47
f 49//48 39//48 45//48 46//48
f 49//49 46//49 50//49
f 50//50 46//50 51//50
f 51//51 46//51 47//51 48//51
f 51//52 48//52 52//52
f 53//53 39//53 49//53 50//53
f 53//54 50//54 54//54
f 54//55 50//55 55//55
f 55//56 50//56 51//56 52//56
f 55//57 52//57 56//57
f 57//58 39//58 53//58 54//58
f 57//59 54//59 58//59
f 58//60 54//60 59//60
f 59//61 54//61 55//61 56//61
f 59//62 56//62 60//62
f 61//63 39//63 57//63 58//63
f 61//64 58//64 62//64
f 62//65 58//65 63//65
f 63//66 58//66 59//66 60//66
f 63//67 60//67 64//67
f 65//68 39//68 61//68 62//68
f 65//69 62//69 66//69
f 66//70 62//70 67//70
f 67//71 62//71 63//71 64//71
f 67//72 64//72 68//72
f 69//73 39//73 65//73 66//73
f 69//74 66//74 70//74
f 70//75 66//75 71//75
f 71//76 66//76 67//76 68//76
f 71//77 68//77 72//77
f 41//78 39//78 69//78 70//78
f 41//79 70//79 42//79
f 42//80 70//80 43//80
f 43//81 70//81 71//81 72//81
f 43//82 72//82 44//82
f 44//83 40//83 72//83
f 40//83 44//83 48//83
f 40//83 48//83 52//83
f 40//83 52//83 56//83
f 40//83 56//83 60//83
f 40//83 60//83 64//83
f 40//83 64//83 68//83
f 40//83 68//83 72//83
