# Blender v2.74 (sub 0) OBJ File: 'Reflection.blend'
# www.blender.org
mtllib reflection.mtl
o Cube.003
v 0.937881 -0.009783 0.761453
v 0.937881 0.372356 0.761453
v 0.937881 -0.009783 0.379313
v 0.937881 0.372356 0.379313
v 1.320021 -0.009783 0.761453
v 1.320021 0.372356 0.761453
v 1.320021 -0.009783 0.379313
v 1.320021 0.372356 0.379313
vn -1.000000 0.000000 0.000000
vn 0.000000 0.000000 -1.000000
vn 1.000000 0.000000 0.000000
vn 0.000000 0.000000 1.000000
vn 0.000000 -1.000000 0.000000
vn 0.000000 1.000000 0.000000
usemtl Material.002
s off
f 2//1 4//1 3//1 1//1
f 4//2 8//2 7//2 3//2
f 8//3 6//3 5//3 7//3
f 6//4 2//4 1//4 5//4
f 1//5 3//5 7//5 5//5
f 6//6 8//6 4//6 2//6
o Plane
v -1.779643 0.000000 1.779643
v 1.779643 0.000000 1.779643
v -1.779643 0.000000 -1.779643
v 1.779643 0.000000 -1.779643
vn 0.000000 1.000000 0.000000
usemtl Material.001
s off
f 9//7 10//7 12//7 11//7
o Cube
v 0.527157 -0.009409 -0.948023
v 0.527157 -0.009409 -0.043400
v -0.377466 -0.009409 -0.043400
v -0.377466 -0.009409 -0.948023
v 0.527158 0.895215 -0.948023
v 0.527157 0.895215 -0.043399
v -0.377466 0.895215 -0.043400
v -0.377466 0.895215 -0.948023
vn 0.000000 -1.000000 -0.000000
vn 0.000000 1.000000 0.000000
vn 1.000000 -0.000000 0.000000
vn -0.000000 -0.000000 1.000000
vn -1.000000 -0.000000 -0.000000
vn 0.000000 0.000000 -1.000000
usemtl Material
s off
f 13//8 14//8 15//8 16//8
f 17//9 20//9 19//9 18//9
f 13//10 17//10 18//10 14//10
f 14//11 18//11 19//11 15//11
f 15//12 19//12 20//12 16//12
f 17//13 13//13 16//13 20//13
